<svg width="32.000000" height="32.000000" viewBox="0 0 32 32" fill="none" xmlns="http://www.w3.org/2000/svg" xmlns:xlink="http://www.w3.org/1999/xlink">
	<desc>
			Created with Pixso.
	</desc>
	<defs>
		<clipPath id="clip7_17">
			<rect id="VK Logo (1)" width="32.000000" height="32.000000" fill="white" fill-opacity="0"/>
		</clipPath>
	</defs>
	<g clip-path="url(#clip7_17)">
		<mask id="mask7_20" mask-type="alpha" maskUnits="userSpaceOnUse" x="0.158447" y="0.000000" width="31.683167" height="32.000000">
			<rect id="rect" x="0.158447" width="31.683167" height="31.999998" fill="#000000" fill-opacity="1.000000"/>
		</mask>
		<g mask="url(#mask7_20)">
			<path id="path" d="M0.15 15.35C0.15 8.11 0.15 4.49 2.38 2.24C4.61 0 8.19 0 15.36 0L16.63 0C23.8 0 27.38 0 29.61 2.24C31.84 4.49 31.84 8.11 31.84 15.35L31.84 16.64C31.84 23.88 31.84 27.5 29.61 29.75C27.38 32 23.8 32 16.63 32L15.36 32C8.19 32 4.61 32 2.38 29.75C0.15 27.5 0.15 23.88 0.15 16.64L0.15 15.35Z" fill="#171634" fill-opacity="1.000000" fill-rule="nonzero"/>
			<path id="path" d="M17.01 23.05C9.79 23.05 5.67 18.05 5.5 9.73L9.12 9.73C9.24 15.83 11.9 18.42 14.01 18.95L14.01 9.73L17.42 9.73L17.42 15C19.51 14.77 21.7 12.37 22.44 9.73L25.84 9.73C25.28 12.98 22.9 15.38 21.21 16.37C22.9 17.17 25.61 19.26 26.64 23.05L22.89 23.05C22.08 20.52 20.07 18.56 17.42 18.29L17.42 23.05L17.01 23.05Z" fill="#C52B5D" fill-opacity="1.000000" fill-rule="nonzero"/>
		</g>
	</g>
</svg>
