<svg width="1440.000000" height="79.011230" viewBox="0 0 1440 79.0112" fill="none" xmlns="http://www.w3.org/2000/svg" xmlns:xlink="http://www.w3.org/1999/xlink">
	<desc>
			Created with Pixso.
	</desc>
	<defs/>
	<path id="path" d="M0 0L60 16C120 32 240 64 360 74.69C480 85 600 75 720 64C840 53 960 43 1080 37.3C1200 32 1320 32 1380 32L1440 32L1440 0L1380 0C1320 0 1200 0 1080 0C960 0 840 0 720 0C600 0 480 0 360 0C240 0 120 0 60 0L0 0Z" fill="#C52B5D" fill-opacity="1.000000" fill-rule="nonzero"/>
</svg>
