<?xml version="1.0" standalone="no"?><svg xmlns="http://www.w3.org/2000/svg" viewBox="0 0 1440 320"><path fill="#C52B5D" fill-opacity="1" d="M0,288L24,282.7C48,277,96,267,144,256C192,245,240,235,288,229.3C336,224,384,224,432,202.7C480,181,528,139,576,128C624,117,672,139,720,154.7C768,171,816,181,864,170.7C912,160,960,128,1008,138.7C1056,149,1104,203,1152,208C1200,213,1248,171,1296,149.3C1344,128,1392,128,1416,128L1440,128L1440,320L1416,320C1392,320,1344,320,1296,320C1248,320,1200,320,1152,320C1104,320,1056,320,1008,320C960,320,912,320,864,320C816,320,768,320,720,320C672,320,624,320,576,320C528,320,480,320,432,320C384,320,336,320,288,320C240,320,192,320,144,320C96,320,48,320,24,320L0,320Z"></path></svg>