<?xml version="1.0" standalone="no"?><svg xmlns="http://www.w3.org/2000/svg" viewBox="0 0 1440 320"><path fill="#C52B5D" fill-opacity="1" d="M0,96L40,90.7C80,85,160,75,240,90.7C320,107,400,149,480,160C560,171,640,149,720,128C800,107,880,85,960,101.3C1040,117,1120,171,1200,170.7C1280,171,1360,117,1400,90.7L1440,64L1440,320L1400,320C1360,320,1280,320,1200,320C1120,320,1040,320,960,320C880,320,800,320,720,320C640,320,560,320,480,320C400,320,320,320,240,320C160,320,80,320,40,320L0,320Z"></path></svg>