<svg width="1440.000000" height="137.829773" viewBox="0 0 1440 137.83" fill="none" xmlns="http://www.w3.org/2000/svg" xmlns:xlink="http://www.w3.org/1999/xlink">
	<desc>
			Created with Pixso.
	</desc>
	<defs/>
	<path id="path" d="M0 3.42L48 16.2C96 29.22 192 54.42 288 48.24C384 41.82 480 3.42 576 0.24C672 -3.18 768 29.22 864 54.6C960 80.22 1056 99.42 1152 105.85C1248 112.03 1344 106.03 1392 102.61L1440 99.42L1440 137.83L1392 137.83C1344 137.83 1248 137.83 1152 137.83C1056 137.83 960 137.83 864 137.83C768 137.83 672 137.83 576 137.83C480 137.83 384 137.83 288 137.83C192 137.83 96 137.83 48 137.83L0 137.83L0 3.42Z" fill="#000000" fill-opacity="1.000000" fill-rule="nonzero"/>
</svg>
