<svg width="1440.000000" height="177.293457" viewBox="0 0 1440 177.293" fill="none" xmlns="http://www.w3.org/2000/svg" xmlns:xlink="http://www.w3.org/1999/xlink">
	<desc>
			Created with Pixso.
	</desc>
	<defs/>
	<path id="path" d="M0 17.29L60 27.99C120 38.29 240 60.29 360 59.99C480 60.29 600 38.29 720 22.59C840 6.29 960 -3.71 1080 1.29C1200 6.29 1320 28.29 1380 38.59L1440 49.29L1440 177.29L1380 177.29C1320 177.29 1200 177.29 1080 177.29C960 177.29 840 177.29 720 177.29C600 177.29 480 177.29 360 177.29C240 177.29 120 177.29 60 177.29L0 177.29L0 17.29Z" fill="#C52B5D" fill-opacity="1.000000" fill-rule="nonzero"/>
</svg>
