<svg width="32.000000" height="32.000000" viewBox="0 0 32 32" fill="none" xmlns="http://www.w3.org/2000/svg" xmlns:xlink="http://www.w3.org/1999/xlink">
	<desc>
			Created with Pixso.
	</desc>
	<defs>
		<clipPath id="clip7_13">
			<rect id="Logo" width="32.000000" height="32.000000" fill="white" fill-opacity="0"/>
		</clipPath>
	</defs>
	<g clip-path="url(#clip7_13)">
		<circle id="Oval" cx="16.000000" cy="16.000000" r="16.000000" fill="#171634" fill-opacity="1.000000"/>
		<circle id="Oval" cx="16.000000" cy="16.000000" r="16.000000" stroke="#000000" stroke-opacity="0" stroke-width="1.000000"/>
		<path id="Path-3" d="M7.24 15.83C11.9 13.79 15.01 12.45 16.57 11.81C21.01 9.96 21.94 9.64 22.54 9.63C22.67 9.62 22.97 9.66 23.16 9.81C23.32 9.94 23.36 10.12 23.38 10.25C23.41 10.37 23.43 10.65 23.41 10.88C23.17 13.41 22.13 19.55 21.6 22.38C21.37 23.58 20.93 23.98 20.51 24.02C19.58 24.11 18.87 23.41 17.97 22.82C16.56 21.89 15.77 21.32 14.4 20.42C12.82 19.38 13.84 18.8 14.74 17.87C14.98 17.62 19.07 13.9 19.15 13.56C19.16 13.52 19.17 13.36 19.08 13.28C18.99 13.2 18.85 13.23 18.75 13.25C18.61 13.28 16.36 14.77 12 17.71C11.36 18.15 10.78 18.36 10.26 18.35C9.69 18.34 8.59 18.03 7.78 17.76C6.77 17.44 5.98 17.26 6.05 16.71C6.08 16.42 6.48 16.13 7.24 15.83Z" fill="#CB2754" fill-opacity="1.000000" fill-rule="evenodd"/>
		<path id="Path-3" d="M16.57 11.81C21.01 9.96 21.94 9.64 22.54 9.63C22.67 9.62 22.97 9.66 23.16 9.81C23.32 9.94 23.36 10.12 23.38 10.25C23.41 10.37 23.43 10.65 23.41 10.88C23.17 13.41 22.13 19.55 21.6 22.38C21.37 23.58 20.93 23.98 20.51 24.02C19.58 24.11 18.87 23.41 17.97 22.82C16.56 21.89 15.77 21.32 14.4 20.42C12.82 19.38 13.84 18.8 14.74 17.87C14.98 17.62 19.07 13.9 19.15 13.56C19.16 13.52 19.17 13.36 19.08 13.28C18.99 13.2 18.85 13.23 18.75 13.25C18.61 13.28 16.36 14.77 12 17.71C11.36 18.15 10.78 18.36 10.26 18.35C9.69 18.34 8.59 18.03 7.78 17.76C6.77 17.44 5.98 17.26 6.05 16.71C6.08 16.42 6.48 16.13 7.24 15.83C11.9 13.79 15.01 12.45 16.57 11.81Z" stroke="#000000" stroke-opacity="0" stroke-width="1.000000"/>
	</g>
</svg>
